<svg width="47" height="50" viewBox="0 0 47 50" fill="none" xmlns="http://www.w3.org/2000/svg">
<path d="M0 0H47V42C47 45.7712 47 47.6569 45.8284 48.8284C44.6569 50 42.7712 50 39 50H8C4.22876 50 2.34315 50 1.17157 48.8284C0 47.6569 0 45.7712 0 42V0Z" fill="#0E0700"/>
<path d="M8 14.9545C10.7741 17.9808 12.5528 22.256 14.7677 25.6869C16.5058 28.3793 18.2347 31.0997 19.7172 33.9444C20.1159 34.7097 20.5735 35.7098 21.1818 36.3182C21.5075 36.6439 21.8566 38.1413 22.3182 38.1742C22.9391 38.2186 24.9107 33.229 25.197 32.6566C26.0524 30.9457 27.3046 29.5486 28.3409 27.9596C29.4167 26.31 30.1588 24.4708 31.1944 22.7955C32.7387 20.2974 34.4952 17.8942 35.9293 15.3333C36.568 14.1927 37.1749 13.0314 38 12" stroke="white" stroke-width="3" stroke-linecap="round"/>
<path d="M19.3811 31.1906C20.7128 31.1906 22.0445 31.1906 23.3761 31.1906C23.7962 31.1906 24.3301 31.275 24.7361 31.1396" stroke="white" stroke-width="3" stroke-linecap="round"/>
</svg>
